<?xml version="1.0" encoding="UTF-8" standalone="no"?>
<!-- Created with Inkscape (http://www.inkscape.org/) -->

<svg
   xmlns:dc="http://purl.org/dc/elements/1.1/"
   xmlns:cc="http://creativecommons.org/ns#"
   xmlns:rdf="http://www.w3.org/1999/02/22-rdf-syntax-ns#"
   xmlns:svg="http://www.w3.org/2000/svg"
   xmlns="http://www.w3.org/2000/svg"
   xmlns:sodipodi="http://sodipodi.sourceforge.net/DTD/sodipodi-0.dtd"
   xmlns:inkscape="http://www.inkscape.org/namespaces/inkscape"
   width="100mm"
   height="100mm"
   viewBox="0 0 100 100"
   version="1.1"
   id="svg8"
   inkscape:version="0.92.2 (5c3e80d, 2017-08-06)"
   sodipodi:docname="ReMU.svg"
   style="enable-background:new"
   inkscape:export-filename="C:\Users\lukas\Pictures\ReMU.png"
   inkscape:export-xdpi="96"
   inkscape:export-ydpi="96">
  <defs
     id="defs2">
    <clipPath
       clipPathUnits="userSpaceOnUse"
       id="clipPath4566">
      <g
         inkscape:label="Clip"
         id="use4568">
        <circle
           r="44.780693"
           cy="194.30586"
           cx="100.355"
           id="circle4599"
           style="fill:none;stroke:#000000;stroke-width:0.77361739;stroke-miterlimit:4;stroke-dasharray:none" />
      </g>
    </clipPath>
    <clipPath
       clipPathUnits="userSpaceOnUse"
       id="clipPath4587">
      <g
         id="use4589"
         inkscape:label="Clip">
        <g
           transform="translate(-0.80180858,1.8708867)"
           inkscape:label="Clip"
           id="g4609">
          <g
             clip-path="url(#clipPath4566)"
             id="g4607">
            <g
               id="g4605"
               inkscape:label="Clip">
              <circle
                 style="fill:none;stroke:#000000;stroke-width:0.77361739;stroke-miterlimit:4;stroke-dasharray:none"
                 id="circle4603"
                 cx="100.355"
                 cy="194.30586"
                 r="44.780693" />
            </g>
          </g>
        </g>
      </g>
    </clipPath>
  </defs>
  <sodipodi:namedview
     id="base"
     pagecolor="#ffffff"
     bordercolor="#666666"
     borderopacity="1.0"
     inkscape:pageopacity="0.0"
     inkscape:pageshadow="2"
     inkscape:zoom="1.4"
     inkscape:cx="81.27623"
     inkscape:cy="187.03527"
     inkscape:document-units="mm"
     inkscape:current-layer="layer2"
     showgrid="false"
     inkscape:window-width="1920"
     inkscape:window-height="1001"
     inkscape:window-x="-9"
     inkscape:window-y="-9"
     inkscape:window-maximized="1"
     showguides="false" />
  <metadata
     id="metadata5">
    <rdf:RDF>
      <cc:Work
         rdf:about="">
        <dc:format>image/svg+xml</dc:format>
        <dc:type
           rdf:resource="http://purl.org/dc/dcmitype/StillImage" />
        <dc:title />
      </cc:Work>
    </rdf:RDF>
  </metadata>
  <g
     inkscape:groupmode="layer"
     id="layer2"
     inkscape:label="Logo"
     transform="translate(0,-197)"
     style="display:inline">
    <circle
       style="fill:#ffffff;stroke:#000000;stroke-width:0.11010625;stroke-miterlimit:4;stroke-dasharray:none"
       id="path835"
       cx="50"
       cy="247"
       r="49.944946" />
    <path
       inkscape:connector-curvature="0"
       style="fill:#000000;stroke:#000000;stroke-width:0.19340435;stroke-linecap:butt;stroke-linejoin:miter;stroke-miterlimit:4;stroke-dasharray:none;stroke-opacity:1"
       d="m 16.448254,271.96238 c -0.112671,0.002 -0.199957,0.10346 -0.316259,0.19068 -0.155075,0.11632 -0.297141,0.21963 -0.297141,0.21963 0,0 -0.193746,-0.0129 -0.335896,-0.0129 -0.14215,0 -0.671724,-0.0129 -0.917255,0 -0.245533,0.013 -0.633444,-0.0258 -1.021128,-0.0258 -0.387683,0 -0.490818,0.0258 -0.878498,0 -0.387684,-0.0258 -0.685139,0 -1.008208,0 -0.32307,0 -0.620528,-3e-5 -0.995289,0.10335 -0.374758,0.1034 -1.0333961,0.0905 -1.4986157,0.11627 -0.4652221,0.0259 -0.7238947,0.0904 -1.0469641,0.14211 -0.2257954,0.0361 -0.5507593,0.0498 -0.8676481,0.0568 a 49.944945,49.944945 0 0 0 2.1972825,3.31607 c 0.1192451,0.009 0.345985,0.023 0.3632861,0.0258 0.077536,0.0129 2.2355073,0.21963 2.2871983,0.21963 0.05169,0 1.021078,0.0129 1.189075,0.0258 0.167994,0.013 1.292315,0.0129 1.69292,0.0904 0.400606,0.0775 1.447372,0.0775 1.744597,0.11627 0.297222,0.0388 1.60247,-0.0129 1.667081,-0.0129 0.06461,0 2.480884,0.16795 2.829801,0.16795 0.348914,0 2.881995,0.0393 2.881995,0.0393 0,0 2.274247,0.0517 2.39055,0.0517 0.116305,0 1.75746,0.0129 1.951302,-0.0129 0.193842,-0.0258 2.261764,-0.0517 2.66237,-0.0646 0.400608,-0.0129 1.201385,-0.12919 1.524455,-0.12919 0.323069,0 2.055159,-0.0517 2.119767,-0.0517 0.06462,0 1.356506,0.0387 1.356506,0.0387 l 1.977141,-0.16794 h 0.969449 c 0.167998,0 1.034018,0.0517 1.137399,0.0646 0.103383,0.0129 1.343541,0.0253 1.511536,0.0253 0.167997,0 1.09861,-0.0382 1.201994,-0.0382 0.10338,0 1.124479,0.0382 1.124479,0.0382 l 1.899626,0.16847 9.523965,0.24546 7.340122,0.18087 3.179132,0.0646 3.088185,0.2067 -0.374655,-0.56844 -9.45937,-0.0259 -3.424597,-0.12971 -9.48521,-0.64595 0.258382,-0.11627 9.601999,0.31264 c 0,0 1.132827,0.0732 1.425236,0.0367 0.292399,-0.0366 1.937332,0.0367 2.339393,0.0367 0.402058,0 1.608153,-0.29277 2.010212,-0.36587 0.40206,-0.0731 1.3888,-0.18242 1.863968,-0.18242 0.47516,0 0.621633,-0.2925 0.475424,-0.84077 -0.146211,-0.54827 -0.987107,-0.54819 -1.279509,-0.65784 -0.29242,-0.1096 -1.352028,-0.10965 -1.534789,-0.14625 -0.182751,-0.0365 -2.376083,-0.0367 -2.376083,-0.0367 l -3.402375,-0.23668 -2.84789,-0.34778 c 0,0 -0.840582,-0.0367 -1.059881,-0.0367 -0.219311,0 -1.389005,-0.0368 -1.644862,-0.0734 -0.255857,-0.0365 -2.010193,9e-5 -2.412257,0.0367 -0.402063,0.0365 -1.461947,-0.0364 -2.010214,-0.0729 -0.548264,-0.0365 -2.339369,-0.2558 -2.741432,-0.2558 -0.402064,0 -1.352394,-1.9e-4 -1.900661,-0.0367 -0.548267,-0.0366 -1.791224,0.0367 -2.229837,0.0367 -0.438616,0 -1.388607,-2.7e-4 -2.083078,0.0362 -0.69447,0.0366 -1.754711,2.6e-4 -2.376082,-0.0362 -0.621369,-0.0365 -1.973501,-0.25632 -2.375564,-0.25632 h -3.363103 c -1.498598,0 -1.462008,0.0367 -1.754415,0.0367 -0.29241,0 -1.498616,-0.21911 -1.498616,-0.21911 0,0 -2.229641,-0.10955 -2.448946,-0.10955 -0.219308,0 -4.166672,-0.43873 -4.166672,-0.43873 0,0 -0.329647,0.0568 -0.497644,0.19895 -0.167997,0.1422 -0.452639,0.12915 -0.607714,0.16795 -0.155072,0.0387 -0.426262,0.0129 -0.671795,-0.0904 -0.245534,-0.10339 -0.271251,-0.23252 -0.452168,-0.3359 -0.04523,-0.0258 -0.08595,-0.0363 -0.123507,-0.0357 z"
       id="path4543" />
    <text
       xml:space="preserve"
       style="font-style:normal;font-variant:normal;font-weight:bold;font-stretch:normal;font-size:17.46656227px;line-height:1.25;font-family:'DejaVu Sans Mono';-inkscape-font-specification:'DejaVu Sans Mono Bold';letter-spacing:0px;word-spacing:0px;fill:#000000;fill-opacity:1;stroke:none;stroke-width:0.20468625"
       x="11.857921"
       y="270.26865"
       id="text4526"><tspan
         sodipodi:role="line"
         id="tspan4524"
         x="11.857921"
         y="270.26865"
         style="font-style:normal;font-variant:normal;font-weight:bold;font-stretch:normal;font-size:17.46656227px;font-family:'DejaVu Sans Mono';-inkscape-font-specification:'DejaVu Sans Mono Bold';stroke-width:0.20468625">ReMU</tspan></text>
    <path
       style="fill:#008000;stroke:#008000;stroke-width:0.19340435;stroke-linecap:butt;stroke-linejoin:miter;stroke-miterlimit:4;stroke-dasharray:none;stroke-opacity:1"
       d="m 40.297802,232.48016 1.240587,-0.15507 c 0,0 0.93044,-0.15508 1.240588,-0.36184 0.310144,-0.20676 1.49904,-0.72367 1.757495,-0.82706 0.258456,-0.10338 1.292278,-0.62029 1.550734,-0.67198 0.258455,-0.0517 1.705804,-0.72368 1.91257,-0.87875 0.206764,-0.15507 0.775366,-0.5686 1.137204,-0.77536 0.361836,-0.20677 1.49904,-0.51692 1.809193,-0.6203 0.31014,-0.10338 1.24058,-0.15507 1.55073,-0.36184 0.31014,-0.20676 1.08551,-0.77536 1.65411,-0.93044 0.5686,-0.15507 1.29228,-0.10338 1.91258,-0.31014 0.62028,-0.20677 1.29227,-0.46522 1.75749,-0.5686 0.46522,-0.10339 1.70581,-0.10339 2.3261,-0.20677 0.62029,-0.10338 1.91257,-0.20676 2.37779,-0.20676 0.46522,0 1.08551,-0.0517 1.60242,0 0.51691,0.0517 2.17103,0.20676 2.17103,0.20676 0,0 1.60242,0.41353 2.01595,0.46522 0.41353,0.0517 2.27441,0.82706 2.27441,0.82706 0,0 2.06765,0.5686 2.42948,0.72367 0.36184,0.15508 1.80918,0.93044 2.11933,1.13721 0.31015,0.20676 2.42949,1.86088 2.42949,1.86088 0,0 2.01852,1.86582 2.12817,2.04857 0.10966,0.18276 1.79101,2.04687 1.93721,2.19307 0.14621,0.14621 1.3524,1.42549 1.4986,1.5717 0.14621,0.1462 1.02344,0.98688 1.16964,1.13308 0.1462,0.14621 0.87722,0.80413 0.95033,0.95033 0.0731,0.14621 0.73102,0.98688 0.95033,1.16964 0.2193,0.18275 0.80412,0.54827 0.95032,0.84067 0.14621,0.29241 0.69447,0.54827 0.69447,0.80413 0,0.25586 0.10966,1.27929 0.10966,1.27929 0,0 0.18275,0.43861 0.40206,0.62137 0.2193,0.18275 0.36551,0.2193 0.87723,0.65792 0.51171,0.43861 0.69447,0.87722 0.84067,1.16963 0.14621,0.29241 0.21931,0.43862 0.43862,0.76758 0.2193,0.32896 0.80412,1.02343 0.84067,1.31584 0.0365,0.29241 0.43861,1.20618 0.43861,1.20618 0,0 0.43862,1.05999 0.58483,1.3524 0.1462,0.2924 0.47516,1.02342 0.43861,1.16963 -0.0365,0.14621 -0.47517,0.76758 -0.69447,0.91378 -0.21931,0.1462 -0.91378,0.62137 -0.91378,0.62137 0,0 -0.29241,0.54826 -0.32896,0.73102 -0.0365,0.18275 -0.58482,0.91378 -0.58482,0.91378 0,0 -0.43861,0.40206 -0.62137,0.62137 -0.18276,0.2193 -0.36551,0.65792 -0.51171,0.65792 -0.14621,0 -0.40207,-0.10965 -0.62137,-0.29241 -0.21931,-0.18275 -0.47517,-0.29241 -0.80413,-0.29241 -0.32896,0 -0.54826,0.1462 -0.84068,0.21931 -0.2924,0.0731 -0.73102,0.0365 -0.95032,0.32896 -0.21931,0.29241 -0.29241,0.76757 -0.69447,0.54827 -0.40207,-0.21932 -0.51172,-0.47518 -0.73103,-0.43862 -0.2193,0.0366 -0.51171,0.18276 -0.73102,0.18276 -0.21931,0 -0.32896,0.25586 -0.69447,-0.0365 -0.36551,-0.29241 -0.21931,0 -0.51172,-0.36551 -0.2924,-0.36551 -0.65791,-0.65792 -0.84067,-1.02343 -0.18275,-0.36551 -0.10966,-0.40206 -0.21931,-0.65792 -0.10965,-0.25586 -0.47517,-0.51171 -0.69447,-0.80413 -0.21931,-0.2924 -0.36551,-0.69446 -0.76758,-0.73102 -0.40206,-0.0365 -0.36551,-0.18275 -0.69447,-0.0365 -0.32896,0.1462 -0.43861,0.21931 -0.43861,0.21931 0,0 -0.10965,0 -0.36551,-0.25586 -0.25586,-0.25586 -0.65792,-0.51172 -0.69447,-0.65792 -0.0365,-0.14621 0,-0.36551 -0.36551,-0.25586 -0.36551,0.10965 -0.29241,0.18276 -0.65793,0.25586 -0.36551,0.0731 -0.73102,0.29241 -1.20618,0.2193 -0.47516,-0.0731 -0.76758,-0.1462 -1.13309,-0.2193 -0.36551,-0.0731 -0.69447,-0.0731 -1.16963,-0.0731 -0.47516,0 -0.62137,0.29241 -0.91378,-0.0731 -0.29241,-0.36551 -0.21931,-0.47516 -0.54826,-0.69446 -0.32897,-0.21931 -0.40207,-0.51172 -0.84068,-0.25586 -0.43862,0.25586 -0.40206,0.29241 -0.76757,0.54827 -0.36551,0.25585 -0.21931,0.43861 -0.73103,0.54826 -0.51171,0.10965 -1.02343,0.0366 -1.20619,0.18276 -0.18275,0.1462 -0.47516,0.47516 -0.47516,0.47516 l -0.10966,0.10966 -0.2428,0.35198 0.85291,0.82706 0.51691,0.50398 0.38768,0.32307 0.33599,0.168 0.38769,0.34891 c 0,0 0.19384,0.21969 0.24553,0.27139 0.0517,0.0517 0.18092,0.29721 0.20677,0.34891 0.0258,0.0517 0.14215,0.42645 0.14215,0.42645 0,0 0.16799,0.34891 0.15507,0.40061 -0.0129,0.0517 0.0129,0.27137 0.0129,0.32307 0,0.0517 -0.0388,0.23261 -0.0258,0.29722 0.0129,0.0646 0.0258,0.4006 0.0258,0.4006 l 0.0775,0.69784 -0.0388,0.4006 c 0,0 0.10339,0.31015 0.11631,0.37476 0.0129,0.0646 0.0905,0.49106 0.1163,0.58152 0.0258,0.0905 0.23261,0.67199 0.23261,0.67199 l 0.18092,0.47814 0.20677,0.60737 c 0,0 0.32307,0.67199 0.32307,0.72368 0,0.0517 0.0775,0.4006 0.0775,0.4006 l 0.20675,0.49107 0.32307,0.67199 0.27138,0.60736 0.19385,0.47815 0.14215,0.41353 0.24553,0.29722 0.41353,0.68491 0.23261,0.94336 c 0,0 0.16799,0.51691 0.19384,0.60737 0.0258,0.0905 0.19384,0.58153 0.21969,0.67198 0.0258,0.0905 0.29722,0.68491 0.31014,0.76244 0.0129,0.0775 0.19385,0.76245 0.19385,0.76245 l 0.46521,1.07259 0.32307,0.54275 0.25846,0.36184 0.18092,0.336 c 0,0 0.0646,0.33599 0.0646,0.38768 0,0.0517 -0.0129,0.20677 0.0258,0.2843 0.0388,0.0775 0.12922,0.34891 0.15507,0.41353 0.0258,0.0646 0.168,0.24553 0.19385,0.33599 0.0258,0.0905 0.18091,0.36184 0.18091,0.36184 0,0 0.14215,0.27138 0.14215,0.32306 0,0.0517 0.0129,0.28431 0,0.336 -0.0129,0.0517 0,0.51691 0,0.51691 0,0 -0.0129,0.14215 0.0129,0.23261 0.0258,0.0905 0.0388,0.25846 0.0258,0.31014 -0.0129,0.0517 -0.0905,0.34892 -0.0905,0.34892 l -0.21969,0.24553 c 0,0 -0.14215,0.15508 -0.25845,0.168 -0.11631,0.0129 -0.24554,0.0905 -0.31015,0.0905 -0.0646,0 -0.47815,0.12923 -0.47815,0.12923 l -0.46521,0.27137 -0.14215,-0.0129 -0.23261,0.37476 c 0,0 -0.14216,0.31015 -0.25846,0.36184 -0.11631,0.0517 -0.47814,0.18092 -0.47814,0.18092 0,0 -0.168,0.0388 -0.29723,0.0905 -0.12922,0.0517 -0.32307,0.0905 -0.46521,0.1163 -0.14216,0.0258 -0.32307,0.19384 -0.46523,0.18092 -0.14215,-0.0129 -0.31014,0.0129 -0.41353,0.0129 h -0.37476 l -0.38768,0.10339 -0.23261,-0.0129 0.0388,-0.24553 0.0775,-0.19384 -0.19384,-0.0258 c 0,0 -0.32307,-0.0517 -0.43938,-0.0517 -0.1163,0 -0.36183,0.0129 -0.55567,0 -0.19385,-0.0129 -0.34892,-0.0517 -0.51692,-0.0517 -0.16799,0 -0.47814,0.0129 -0.63321,-0.0388 -0.15507,-0.0517 -0.2843,-0.10338 -0.38768,-0.11631 -0.10339,-0.0129 -0.23261,-0.0775 -0.23261,-0.0775 l -0.15508,-0.0129 0.0775,-0.27138 0.18092,-0.1163 c 0,0 0.0905,-0.19385 0.14216,-0.23261 0.0517,-0.0388 0.2843,-0.24553 0.2843,-0.24553 l 0.36184,-0.21969 0.33599,-0.14215 c 0,0 0.21969,-0.0775 0.32307,-0.0775 h 0.50398 c 0.18092,0 0.32307,0 0.46523,-0.0129 0.14214,-0.0129 0.2326,0 0.36183,-0.0129 0.12923,-0.0129 0.37477,-0.0258 0.4523,-0.0258 0.0775,0 0.2843,0 0.36184,-0.0129 0.0775,-0.0129 0.32307,-0.0905 0.38768,-0.168 0.0646,-0.0775 0.31015,-0.27137 0.36183,-0.31014 0.0517,-0.0388 0.29723,-0.27138 0.36185,-0.32308 0.0646,-0.0517 0.31014,-0.31014 0.31014,-0.31014 l 0.0517,-0.20677 c 0,0 -0.0129,-0.64613 0,-0.69782 0.0129,-0.0517 0.0129,-0.32307 0.0129,-0.41353 0,-0.0905 0,-0.36184 -0.0129,-0.46522 -0.0129,-0.10338 -0.19384,-0.43937 -0.19384,-0.50399 0,-0.0646 -0.11631,-0.49106 -0.11631,-0.59445 0,-0.10338 -0.11631,-0.46521 -0.12922,-0.54275 -0.0129,-0.0775 -0.19384,-0.82706 -0.19384,-0.82706 l -0.19385,-0.47814 -0.51691,-1.62828 c 0,0 -0.59444,-1.7058 -0.59444,-1.75749 0,-0.0517 -0.56861,-1.69289 -0.56861,-1.69289 0,0 -0.34891,-0.82705 -0.36184,-0.87874 -0.0129,-0.0517 -0.49106,-1.33105 -0.49106,-1.33105 l -0.51692,-1.48612 -0.32307,-0.71075 -0.28429,-0.49106 -0.10338,-0.29722 -0.59446,-0.60738 c 0,0 -0.34891,-0.27138 -0.4006,-0.29722 -0.0517,-0.0258 -0.38768,-0.2843 -0.41353,-0.33599 -0.0258,-0.0517 -0.1163,-0.31015 -0.1163,-0.31015 l -0.2843,-0.20677 c 0,0 -0.20676,-0.2843 -0.21969,-0.33599 -0.0129,-0.0517 -0.11631,-0.2843 -0.11631,-0.37475 v -0.47815 l -0.91752,-1.20182 c 0,0 -0.73659,-1.00798 -0.78828,-1.07259 -0.0517,-0.0646 -0.4523,-0.49106 -0.47814,-0.5686 -0.0258,-0.0775 -0.36184,-0.51691 -0.46523,-0.58152 -0.10337,-0.0646 -0.74951,-0.80122 -0.78828,-0.85291 -0.0388,-0.0517 -0.54276,-0.43937 -0.59445,-0.5169 -0.0517,-0.0775 -0.52983,-0.37477 -0.55568,-0.42646 -0.0258,-0.0517 -0.23261,-0.24553 -0.23261,-0.24553 l -0.27138,0.19384 c 0,0 -0.21968,0.0775 -0.31014,0.0646 -0.0905,-0.0129 -0.36185,-0.0517 -0.36185,-0.11629 0,-0.0646 -0.0258,-0.36185 -0.0775,-0.36185 -0.0517,0 -0.15507,0.0775 -0.21968,0.11631 -0.0646,0.0388 -0.168,0.2843 -0.168,0.40061 0,0.1163 0.0258,0.52983 0.0388,0.67198 0.0129,0.14215 0.0517,0.77536 0.0646,0.83998 0.0129,0.0646 0.0258,0.43937 0.0388,0.52983 0.0129,0.0905 0.14215,0.43938 0.16799,0.51692 0.0258,0.0775 0.0905,0.46521 0.10339,0.54275 0.0129,0.0775 0.0646,0.52984 0.0388,0.60738 -0.0258,0.0775 -0.0646,0.37475 -0.0646,0.42644 0,0.0517 0.12922,0.40061 0.14215,0.51691 0.0129,0.11631 0,0.72368 0,0.77537 0,0.0517 -0.12923,0.60737 -0.15508,0.65906 -0.0258,0.0517 -0.29721,0.4523 -0.29721,0.4523 l -0.46523,0.81413 c 0,0 -0.27137,0.4523 -0.31014,0.52984 -0.0388,0.0775 -0.34892,0.63321 -0.40061,0.74952 -0.0517,0.1163 -0.18092,0.46522 -0.23261,0.54275 -0.0517,0.0775 -0.25846,0.49107 -0.28431,0.58153 -0.0258,0.0905 -0.31014,0.77537 -0.31014,0.86583 0,0.0905 -0.15507,0.89167 -0.15507,0.89167 l -0.23261,0.72367 -0.23261,0.65906 c 0,0 -0.38769,1.57658 -0.40061,1.6412 -0.0129,0.0646 -0.18091,0.55567 -0.18091,0.55567 0,0 -0.40061,1.6412 -0.41353,1.71873 -0.0129,0.0775 -0.25846,0.98213 -0.29723,1.05967 -0.0388,0.0775 -0.20676,0.86583 -0.25846,0.99505 -0.0517,0.12923 -0.33598,1.03383 -0.34891,1.11136 -0.0129,0.0775 -0.29722,0.68491 -0.29722,0.74952 0,0.0646 -0.20677,0.91752 -0.24554,1.00798 -0.0388,0.0905 -0.10337,0.47814 -0.10337,0.47814 l 0.0905,0.40061 -0.10339,0.38768 -0.10338,0.1163 c 0,0 0,0.20677 0.0129,0.29723 0.0129,0.0905 -0.0129,0.36183 -0.0258,0.50399 -0.0129,0.14215 -0.14214,0.77536 -0.15507,0.82706 -0.14207,0.42632 -0.45222,0.85277 -0.45222,0.85277 l -0.58152,0.14215 -0.7366,0.11631 c 0,0 -0.51691,0 -0.60737,0 -0.0905,0 -0.46522,0 -0.55568,0 -0.0905,0 -0.34891,0.1163 -0.34891,0.1163 l -0.18092,0.24553 c 0,0 -0.60737,-0.0129 -0.71076,-0.0129 -0.10338,0 -0.594444,0.0129 -0.684903,0 -0.09046,-0.0129 -0.503988,-0.0258 -0.60737,-0.0129 -0.103383,0.0129 -0.594448,-0.0129 -0.594448,-0.0129 v -0.168 l 0.284302,-0.21969 -0.32307,-0.0775 -0.491065,-0.0129 c 0,0 -0.491066,0.0129 -0.55568,0 -0.06461,-0.0129 -0.594447,-0.0258 -0.684906,-0.0258 -0.09046,0 -0.413529,0.0388 -0.516911,0.0129 -0.103383,-0.0258 -0.374761,-0.20676 -0.374761,-0.20676 l -0.271379,-0.0775 -0.232609,0.0129 0.07754,-0.32307 0.297224,-0.43937 c 0,0 0.271379,-0.21969 0.335992,-0.27139 0.06461,-0.0517 0.32307,-0.20676 0.426452,-0.24553 0.103382,-0.0388 0.478142,-0.0905 0.555679,-0.0905 0.07754,0 0.503988,-0.0129 0.607371,-0.0129 0.103382,0 0.478142,0 0.620292,0 0.142151,0 0.581525,0 0.710753,0 0.129228,0 0.516911,0 0.684907,-0.0905 0.167996,-0.0905 0.323069,-0.10338 0.50399,-0.0905 0.18092,0.0129 0.43937,-0.0129 0.43937,-0.0129 0,0 0.21969,0 0.29723,-0.0258 0.0775,-0.0258 0.37476,-0.21969 0.42645,-0.27138 0.0517,-0.0517 0.23261,-0.21968 0.32307,-0.33599 0.0905,-0.11631 0.2843,-0.36184 0.32307,-0.45229 0.0388,-0.0905 0.16799,-0.54277 0.23261,-0.65907 0.0646,-0.1163 0.19384,-0.47814 0.2843,-0.63322 0.0905,-0.15507 0.2843,-0.33599 0.32307,-0.5169 0.0388,-0.18092 0.27137,-0.47815 0.32307,-0.54276 0.0517,-0.0646 0.34891,-0.96921 0.34891,-0.96921 0,0 0.34892,-1.43443 0.37476,-1.51197 0.0259,-0.0775 0.46522,-1.58949 0.49107,-1.65411 0.0259,-0.0646 0.7366,-2.57163 0.7366,-2.62332 0,-0.0517 0.33599,-1.51197 0.33599,-1.51197 0,0 0.20676,-1.07259 0.20676,-1.12427 0,-0.0517 0.27138,-0.81414 0.29722,-0.96922 0.0258,-0.15507 0.12923,-0.98213 0.14216,-1.12428 0.0129,-0.14215 0.15507,-0.82706 0.18092,-0.94336 0.0258,-0.1163 0,-0.55568 0,-0.7366 0,-0.18091 -0.0517,-1.08551 -0.0517,-1.17597 0,-0.0905 -0.0129,-0.46522 0.0129,-0.51691 0.0258,-0.0517 0.21968,-0.25846 0.25845,-0.37476 0.0388,-0.11631 0.23261,-0.2843 0.24553,-0.41353 0.0129,-0.12923 0.0517,-0.74952 0.0775,-0.87875 0.0258,-0.12923 0.0129,-0.58152 0.0129,-0.58152 0,0 -0.1163,-1.79627 -0.1163,-1.88673 0,-0.0905 -0.0646,-0.60737 -0.0646,-0.77536 0,-0.168 0,-0.82706 -0.0129,-0.93045 -0.0129,-0.10337 -0.20677,-0.5169 -0.23261,-0.60736 -0.0258,-0.0905 -0.12923,-0.4523 -0.16799,-0.52984 -0.0388,-0.0775 -0.20677,-0.27138 -0.34892,-0.29722 -0.14215,-0.0258 -0.24553,-0.0388 -0.2843,0.0517 -0.0388,0.0905 -0.0775,0.4006 -0.0388,0.52983 0.0388,0.12923 0.0775,0.72367 0.0775,0.86583 0,0.14215 -0.18092,0.47814 -0.28431,0.62029 -0.10338,0.14215 -0.42645,0.4006 -0.5686,0.49106 -0.14215,0.0905 -0.46522,0.10339 -0.55568,0.14215 -0.0905,0.0388 -0.32307,0.29723 -0.40061,0.24553 -0.0775,-0.0517 -0.41352,-0.25845 -0.49106,-0.16799 -0.0775,0.0905 -0.23261,0.32307 -0.40061,0.31015 -0.16799,-0.0129 -0.34891,-0.14216 -0.49106,-0.14216 -0.14215,0 -0.4523,0.14216 -0.65906,0.0258 -0.20677,-0.1163 -0.82706,-0.62029 -0.91752,-0.76244 -0.0905,-0.14215 -0.5686,-0.63322 -0.67199,-0.72368 -0.10338,-0.0905 -0.465215,-0.21968 -0.659057,-0.23261 -0.193841,-0.0129 -0.671984,-0.0129 -0.814134,-0.0129 -0.142151,0 -0.491066,-0.20676 -0.491066,-0.20676 l -0.827057,-0.31015 c 0,0 -0.32307,0.21969 -0.439374,0.23261 -0.116305,0.0129 -0.335993,-0.0129 -0.452297,-0.11631 -0.116305,-0.10338 -0.297224,-0.2326 -0.478143,-0.18092 -0.180919,0.0517 -0.478143,0.25846 -0.671984,0.34892 -0.193842,0.0905 -0.60737,0.37476 -0.865826,0.40061 -0.258455,0.0258 -0.335992,0.10338 -0.529833,0 -0.193842,-0.10338 -0.478143,-0.40061 -0.659062,-0.41353 -0.180919,-0.0129 -0.284301,0.0775 -0.491065,0 -0.206764,-0.0775 -0.284301,-0.18092 -0.413529,-0.21969 -0.129227,-0.0388 -0.801212,-0.33599 -0.943362,-0.38768 -0.142151,-0.0517 -0.335992,-0.20677 -0.620294,-0.25845 -0.2843,-0.0517 -0.943362,-0.18093 -1.085512,-0.336 -0.14215,-0.15507 -0.503988,-0.7366 -0.568602,-0.8529 -0.06461,-0.11631 -0.413529,-0.7366 -0.491066,-0.83998 -0.07754,-0.10338 -0.09046,-0.25846 -0.426451,-0.27138 -0.335992,-0.0129 -0.83998,0.0388 -1.085513,-0.0775 -0.245533,-0.1163 -0.788289,-0.34891 -0.969208,-0.47814 -0.180918,-0.12923 -0.633215,-0.34891 -0.904594,-0.4523 -0.271378,-0.10338 -0.852903,-0.15507 -0.904594,-0.29722 -0.05169,-0.14215 -0.284301,-0.52983 -0.516911,-0.60737 -0.23261,-0.0775 -0.814134,-0.5686 -0.904594,-0.68491 -0.09046,-0.1163 -0.555679,-0.52983 -0.684907,-0.64614 -0.129228,-0.1163 -0.503988,-0.4006 -0.659061,-0.54275 -0.155074,-0.14215 -0.478142,-0.55568 -0.503988,-0.67199 -0.02585,-0.1163 -0.452297,-0.91751 -0.452297,-0.91751 0,0 -0.529834,0.0388 -0.594448,-0.0775 -0.06461,-0.1163 -0.478142,-0.37476 -0.503988,-0.52983 -0.02585,-0.15508 -0.02585,-0.71076 -0.09046,-0.82706 -0.06461,-0.11631 -0.348915,-0.38768 -0.581525,-0.52983 -0.23261,-0.14215 -0.607371,-0.36184 -0.684907,-0.47815 -0.07754,-0.1163 -0.23261,-0.54275 -0.245532,-0.6849 -0.01293,-0.14215 0.14215,-0.40061 -0.258456,-0.63322 -0.400606,-0.23261 -0.581525,-0.58152 -0.581525,-0.72368 0,-0.14215 -0.02585,-0.51691 -0.129227,-0.67198 -0.103383,-0.15507 -0.452297,-0.20676 -0.491066,-0.38768 -0.03877,-0.18092 -0.245533,-0.82706 -0.245533,-0.94336 0,-0.11631 0.01292,-0.51692 0.01292,-0.51692 0,0 0.02585,-1.61534 0.06461,-1.7058 0.03877,-0.0905 0.180919,-0.42645 0.193842,-0.52984 0.01293,-0.10338 -0.06461,-0.49106 -0.06461,-0.6849 0,-0.19384 0.05169,-0.82706 0.09046,-1.00798 0.03877,-0.18092 0.03877,-0.69783 0.09046,-0.83998 0.05169,-0.14215 -0.206764,-0.42645 -0.180919,-0.55568 0.02585,-0.12923 0,-0.37476 0.09046,-0.5686 0.09046,-0.19384 0.23261,-0.63322 0.258456,-0.74952 0.02585,-0.11631 -0.02585,-0.34892 -0.03877,-0.47814 -0.01293,-0.12923 0.271378,-0.78829 0.323068,-0.87875 0.05169,-0.0905 0.284302,-0.40061 0.348916,-0.47814 0.06461,-0.0775 0.116305,-0.83998 0.116305,-0.83998 0,0 0.193841,-0.4523 0.2843,-0.65907 0.09046,-0.20676 0.297224,-0.67198 0.335992,-0.77536 0.03877,-0.10338 0.297224,-0.55568 0.361838,-0.64614 0.06461,-0.0905 0.387683,-0.43938 0.413529,-0.50399 0.02585,-0.0646 0.167996,-0.33599 0.180919,-0.47814 0.01292,-0.14215 0.03877,-0.6203 0.05169,-0.7366 0.01293,-0.11631 0.02585,-0.49107 0.02585,-0.60737 0,-0.11631 -0.116304,-0.5686 -0.167995,-0.67199 -0.05169,-0.10338 -0.581525,-0.62029 -0.581525,-0.62029 0,0 -0.529834,-0.24553 -0.646139,-0.29722 -0.116305,-0.0517 -0.581525,-0.19384 -0.646139,-0.24553 -0.06461,-0.0517 -0.710752,-0.15508 -0.762443,-0.15508 -0.05169,0 -0.491065,0.0388 -0.594448,0.0258 -0.103382,-0.0129 -0.594447,0 -0.710752,0.0129 -0.116305,0.0129 -1.188895,0.10338 -1.188895,0.10338 l -0.516911,0.0388 c 0,0 -0.361838,0.0388 -0.478142,0.0259 -0.116305,-0.0129 -0.23261,0.0388 -0.284302,-0.0388 -0.05169,-0.0775 -0.05169,-0.36183 0.02585,-0.41352 0.07754,-0.0517 0.245532,-0.0517 0.348914,-0.15508 0.103383,-0.10338 0.374761,-0.25845 0.516912,-0.37476 0.14215,-0.1163 0.684906,-0.47814 0.801211,-0.55568 0.116306,-0.0775 0.516911,-0.34891 0.620293,-0.43937 0.103383,-0.0905 0.180919,-0.25846 0.245533,-0.37476 0.06461,-0.11631 0.374761,-0.40061 0.542756,-0.47814 0.167997,-0.0775 0.762445,-0.40061 0.865826,-0.4523 0.103382,-0.0517 0.439375,-0.37476 0.491065,-0.4523 0.05169,-0.0775 0.361838,-0.23261 0.478143,-0.2843 0.116305,-0.0517 0.581525,-0.15507 0.749521,-0.15507 0.167996,0 0.60737,0.0259 0.827057,0 0.219687,-0.0258 0.284301,-0.0388 0.284301,-0.0388 l 0.361838,0.0129 c 0,0 0.23261,-0.27138 0.323069,-0.29723 0.09046,-0.0258 0.193842,-0.0775 0.348916,0 0.155073,0.0775 0.142149,0.25846 0.271378,0.25846 0.129227,0 0.439374,0.0905 0.452297,0.20676 0.01292,0.11631 -0.103383,0.31015 0.02585,0.43938 0.129227,0.12923 0.452297,0.20676 0.452297,0.4006 0,0.19385 -0.01293,0.6203 0.02585,0.69783 0.03877,0.0775 0.271378,0.336 0.335992,0.41353 0.06461,0.0775 0.310147,0.36184 0.335992,0.50399 0.02585,0.14215 0.09046,0.94336 0.116305,1.05967 0.02585,0.1163 0.129228,0.72367 0.14215,0.78829 0.01293,0.0646 0,0.4006 -0.03877,0.47814 -0.03877,0.0775 -0.2843,0.50399 -0.2843,0.5686 0,0.0646 -0.103383,1.11136 -0.103383,1.11136 0,0 0.01292,0.47814 0.01292,0.59444 0,0.11631 -0.09046,0.41353 -0.103383,0.52984 -0.01292,0.1163 0.07754,0.50399 0.09046,0.59445 0.01292,0.0905 0.116305,0.55568 0.103383,0.64614 -0.01293,0.0905 -0.02585,0.34891 -0.01293,0.4006 0.01293,0.0517 0.193841,0.27138 0.193841,0.27138 0,0 0.206765,0.33599 0.335992,0.34891 0.129228,0.0129 0.46522,0 0.503989,0.0775 0.03877,0.0775 0.297223,0.47814 0.37476,0.59445 0.07754,0.1163 0.258455,0.2843 0.297224,0.34891 0.03877,0.0646 0.155073,0.36184 0.129227,0.4523 -0.02585,0.0905 -0.103381,0.46522 -0.05169,0.74952 0.05169,0.2843 0.361838,0.82706 0.206765,0.91752 -0.155074,0.0905 -0.400606,0.0646 -0.400606,0.2843 0,0.21969 0.07754,0.51691 0.155073,0.71075 0.07754,0.19384 0.361838,0.58153 0.348914,0.7366 -0.01292,0.15507 -0.05169,0.33599 -0.07754,0.47814 -0.02585,0.14215 -0.167996,0.18092 -0.06461,0.37476 0.103383,0.19384 0.374761,0.43938 0.529835,0.58153 0.155073,0.14215 0.387682,0.41353 0.503987,0.5686 0.116305,0.15507 0.245533,0.34891 0.32307,0.42645 0.07754,0.0775 0.23261,0.2843 0.348914,0.29722 0.116305,0.0129 0.478143,0.0775 0.633216,0.0646 0.155074,-0.0129 0.46522,-0.0129 0.568602,-0.0388 0.103383,-0.0259 0.193842,0 0.32307,-0.0646 0.129227,-0.0646 0.400606,-0.20677 0.60737,-0.25846 0.206765,-0.0517 0.542757,-0.16799 0.620293,-0.19384 0.07754,-0.0259 0.491065,-0.0775 0.491065,-0.0775 z"
       id="path4541"
       inkscape:connector-curvature="0"
       sodipodi:nodetypes="cccccccccccccsccccccccccccscsccccccccccccccscsccccscccsccccscscscsccccscccccccccssccscccccccccscccccccccccccccccsccccsccscccssccccccccssccccccscsscccccccccssccssccccccscssscccsccccccccsscccscccccccscccsscsccscccscscccccccscccccccccscccccssc" />
  </g>
</svg>
